<svg xmlns="http://www.w3.org/2000/svg" width="75" height="72" fill="none" viewBox="0 0 75 72"><defs><clipPath id="a"><path fill="#fff" fill-opacity="0" d="M0 0h75v72H0z"/></clipPath></defs><path fill="none" d="M0 0h75v72H0z"/><g clip-path="url(#a)"><path fill="#83B3D3" d="M64.3 21.3H41.4c12.7-6.6 13.7-10.7 13.2-13-1-3.8-5.2-6.6-9.2-5.1-5.1 2-6.5 9.8-8 15.5C35.8 13 34.2 5.7 30 2A6.6 6.6 0 0 0 24.7 0c-3.7.4-9 5.2-7 10.5 2.2 5 9 8.3 13.5 10.9H10.7A2.7 2.7 0 0 0 8 24v10.7c0 1.6 1.2 2.8 2.7 2.8h.3V72h53.2V37.5h.1c1.5 0 2.7-1.2 2.7-2.8V24c0-1.5-1.2-2.7-2.7-2.7ZM47.1 5.5c2-.2 4.6 1.3 4.9 3 .3 2.7-3.2 5.1-4.7 6.1-2.3 1.7-4.5 2.5-6.8 4 .9-3.6 2.3-12.4 6.6-13ZM26 15c-2-1.4-6-4.1-6-7.4.2-3.4 5.3-6.2 8.2-3.7 3.6 3.3 5.2 10.6 6.5 15.8-3-1.5-5.8-2.7-8.7-4.7Zm5.5 54.2H13.6V37.5h18v31.7Zm0-34.6H10.8V24h20.7v10.5Zm9.4 0v34.6h-6.6v-45h6.6v10.4Zm20.6 34.6h-18V37.5h18v31.7ZM64 34.6H43.6V24H64v10.5Z"/></g></svg>